<?xml version="1.0" encoding="UTF-8"?>
<svg xmlns="http://www.w3.org/2000/svg" xmlns:xlink="http://www.w3.org/1999/xlink" width="578px" height="578px" viewBox="0 0 578 578" version="1.1">
<g id="surface1">
<path style=" stroke:none;fill-rule:nonzero;fill:rgb(90.196078%,90.196078%,90.196078%);fill-opacity:1;" d="M 554.480469 229.003906 C 554.480469 329.222656 496.464844 414.402344 415.667969 445.449219 C 383.144531 457.875 348.351562 461.144531 314.40625 454.964844 C 311.1875 454.378906 307.988281 453.710938 304.8125 452.953125 C 300.507812 451.9375 296.257812 450.773438 292.054688 449.453125 C 205.308594 422.363281 141.730469 333.921875 141.730469 229.003906 C 141.730469 102.527344 234.125 0 348.105469 0 C 462.082031 0 554.480469 102.527344 554.480469 229.003906 Z M 554.480469 229.003906 "/>
<path style=" stroke:none;fill-rule:nonzero;fill:rgb(24.705882%,23.921569%,33.72549%);fill-opacity:1;" d="M 218.84375 299.683594 C 218.089844 300.132812 217.804688 301.175781 218.207031 302.015625 L 295.796875 463.28125 C 296.203125 464.121094 297.144531 464.4375 297.898438 463.992188 L 407.582031 399.011719 C 408.339844 398.5625 408.625 397.515625 408.222656 396.675781 L 330.632812 235.414062 C 330.226562 234.574219 329.285156 234.253906 328.527344 234.703125 Z M 218.84375 299.683594 "/>
<path style=" stroke:none;fill-rule:nonzero;fill:rgb(100%,100%,100%);fill-opacity:1;" d="M 229.039062 304.394531 L 300.042969 451.96875 L 397.386719 394.296875 L 326.382812 246.726562 Z M 222.871094 308.050781 L 222.886719 308.042969 Z M 222.871094 308.050781 "/>
<path style=" stroke:none;fill-rule:nonzero;fill:rgb(42.352941%,38.823529%,100%);fill-opacity:1;" d="M 253.585938 320.621094 C 252.070312 321.515625 251.75 324.132812 252.867188 326.449219 C 253.980469 328.765625 256.117188 329.925781 257.628906 329.03125 L 328.925781 286.792969 C 330.4375 285.898438 330.757812 283.28125 329.644531 280.964844 C 328.527344 278.644531 326.390625 277.488281 324.878906 278.382812 Z M 253.585938 320.621094 "/>
<path style=" stroke:none;fill-rule:nonzero;fill:rgb(42.352941%,38.823529%,100%);fill-opacity:1;" d="M 262.367188 338.875 C 260.855469 339.773438 260.535156 342.386719 261.648438 344.707031 C 262.765625 347.023438 264.902344 348.183594 266.414062 347.285156 L 337.707031 305.046875 C 339.21875 304.152344 339.542969 301.539062 338.425781 299.21875 C 337.3125 296.902344 335.175781 295.742188 333.660156 296.640625 Z M 262.367188 338.875 "/>
<path style=" stroke:none;fill-rule:nonzero;fill:rgb(42.352941%,38.823529%,100%);fill-opacity:1;" d="M 271.152344 357.132812 C 269.640625 358.027344 269.316406 360.644531 270.433594 362.960938 C 271.546875 365.28125 273.6875 366.4375 275.199219 365.542969 L 346.492188 323.304688 C 348.003906 322.410156 348.328125 319.792969 347.210938 317.476562 C 346.097656 315.15625 343.957031 314 342.445312 314.894531 Z M 271.152344 357.132812 "/>
<path style=" stroke:none;fill-rule:nonzero;fill:rgb(42.352941%,38.823529%,100%);fill-opacity:1;" d="M 279.9375 375.390625 C 278.421875 376.285156 278.101562 378.902344 279.21875 381.21875 C 280.332031 383.535156 282.46875 384.695312 283.980469 383.796875 L 355.277344 341.5625 C 356.789062 340.664062 357.109375 338.050781 355.996094 335.730469 C 354.878906 333.414062 352.742188 332.257812 351.230469 333.152344 Z M 279.9375 375.390625 "/>
<path style=" stroke:none;fill-rule:nonzero;fill:rgb(42.352941%,38.823529%,100%);fill-opacity:1;" d="M 288.71875 393.644531 C 287.207031 394.542969 286.886719 397.15625 288 399.476562 C 289.117188 401.792969 291.253906 402.953125 292.765625 402.054688 L 364.058594 359.816406 C 365.574219 358.921875 365.894531 356.308594 364.777344 353.988281 C 363.664062 351.671875 361.527344 350.511719 360.015625 351.410156 Z M 288.71875 393.644531 "/>
<path style=" stroke:none;fill-rule:nonzero;fill:rgb(18.431373%,18.039216%,25.490196%);fill-opacity:1;" d="M 302.5625 230.011719 L 367.164062 234.386719 L 385.257812 174.519531 L 328.59375 161.234375 Z M 302.5625 230.011719 "/>
<path style=" stroke:none;fill-rule:nonzero;fill:rgb(100%,72.156863%,72.156863%);fill-opacity:1;" d="M 374.992188 186.203125 C 374.992188 202.035156 363.421875 214.871094 349.152344 214.871094 C 334.886719 214.871094 323.316406 202.035156 323.316406 186.203125 C 323.316406 170.367188 334.886719 157.53125 349.152344 157.53125 C 363.421875 157.53125 374.992188 170.367188 374.992188 186.203125 Z M 374.992188 186.203125 "/>
<path style=" stroke:none;fill-rule:nonzero;fill:rgb(18.431373%,18.039216%,25.490196%);fill-opacity:1;" d="M 415.5 443.21875 L 415.667969 445.449219 C 383.144531 457.875 348.351562 461.144531 314.40625 454.964844 L 304.8125 452.953125 L 313.941406 430.484375 L 319.929688 415.753906 L 317.773438 364.800781 L 317.542969 359.527344 L 317.261719 352.800781 L 321.160156 352.773438 L 348.882812 352.589844 L 375.296875 352.402344 L 379.328125 352.378906 C 404.585938 386.855469 425.429688 414.875 415.5 443.21875 Z M 415.5 443.21875 "/>
<path style=" stroke:none;fill-rule:nonzero;fill:rgb(42.352941%,38.823529%,100%);fill-opacity:1;" d="M 378.945312 351.953125 L 317.261719 359.558594 L 314.976562 312.238281 C 307.738281 291.75 312.519531 273.464844 327.542969 257.054688 L 330.597656 243.640625 C 332.230469 236.460938 337.324219 230.886719 343.816406 229.179688 C 353.914062 222.753906 365.351562 219.691406 378.183594 220.128906 C 388.707031 224.691406 395.300781 236.351562 394.425781 248.851562 C 391.769531 286.039062 387.003906 320.851562 378.945312 351.953125 Z M 378.945312 351.953125 "/>
<path style=" stroke:none;fill-rule:nonzero;fill:rgb(18.431373%,18.039216%,25.490196%);fill-opacity:1;" d="M 329.609375 152.328125 C 329.609375 152.328125 316.25 157.738281 315.90625 177.40625 C 315.886719 180.71875 316.285156 184.011719 317.089844 187.199219 C 317.957031 190.816406 318.652344 198.660156 312.824219 209.113281 C 309.019531 215.898438 305.578125 222.929688 302.519531 230.167969 L 317.5625 231.777344 L 320.050781 204.105469 C 321.253906 190.691406 324.234375 177.546875 328.890625 165.09375 L 328.988281 164.835938 C 328.988281 164.835938 335.890625 178.144531 349.003906 177.734375 L 344.191406 172.683594 C 344.191406 172.683594 360.617188 179.546875 369.550781 180.925781 C 371.628906 181.246094 373.375 182.816406 374.089844 185.003906 C 374.804688 187.195312 374.367188 189.640625 372.957031 191.363281 C 372.90625 191.425781 372.851562 191.492188 372.796875 191.554688 C 367.332031 197.96875 356.460938 212.875 363.308594 224.105469 C 370.15625 235.335938 364.617188 238.628906 364.617188 238.628906 L 374.761719 232.070312 L 379.367188 228.804688 L 379.472656 232.960938 L 403.753906 229.082031 C 403.753906 229.082031 410.285156 227.839844 395.78125 210.605469 C 395.78125 210.605469 391.898438 203.859375 393.371094 197.886719 C 394.589844 193.347656 394.820312 188.550781 394.039062 183.894531 C 390.394531 164.503906 377.0625 126.144531 329.609375 152.328125 Z M 329.609375 152.328125 "/>
<path style=" stroke:none;fill-rule:nonzero;fill:rgb(90.196078%,90.196078%,90.196078%);fill-opacity:1;" d="M 441.011719 569.683594 C 441.011719 566.414062 399.414062 563.765625 348.105469 563.765625 C 296.792969 563.765625 255.199219 566.414062 255.199219 569.683594 C 255.199219 572.949219 296.792969 575.597656 348.105469 575.597656 C 399.414062 575.597656 441.011719 572.949219 441.011719 569.683594 Z M 441.011719 569.683594 "/>
<path style=" stroke:none;fill-rule:nonzero;fill:rgb(94.901961%,94.901961%,94.901961%);fill-opacity:1;" d="M 0.566406 272.550781 C 0.160156 272.671875 -0.0820312 273.132812 0.0273438 273.582031 L 20.808594 360.136719 C 20.917969 360.589844 21.332031 360.855469 21.738281 360.734375 L 80.609375 343.332031 C 81.015625 343.210938 81.257812 342.75 81.148438 342.296875 L 60.367188 255.742188 C 60.257812 255.292969 59.839844 255.027344 59.433594 255.144531 Z M 0.566406 272.550781 "/>
<path style=" stroke:none;fill-rule:nonzero;fill:rgb(100%,100%,100%);fill-opacity:1;" d="M 15.03125 286.84375 C 14.21875 287.085938 13.800781 288.292969 14.101562 289.535156 C 14.398438 290.78125 15.304688 291.597656 16.113281 291.359375 L 54.378906 280.042969 C 55.191406 279.804688 55.609375 278.597656 55.308594 277.351562 C 55.011719 276.109375 54.105469 275.292969 53.296875 275.53125 Z M 15.03125 286.84375 "/>
<path style=" stroke:none;fill-rule:nonzero;fill:rgb(100%,100%,100%);fill-opacity:1;" d="M 17.382812 296.640625 C 16.570312 296.882812 16.15625 298.089844 16.453125 299.335938 C 16.753906 300.578125 17.65625 301.394531 18.46875 301.15625 L 56.730469 289.84375 C 57.542969 289.601562 57.960938 288.394531 57.660156 287.152344 C 57.363281 285.90625 56.460938 285.089844 55.648438 285.328125 Z M 17.382812 296.640625 "/>
<path style=" stroke:none;fill-rule:nonzero;fill:rgb(100%,100%,100%);fill-opacity:1;" d="M 19.738281 306.441406 C 18.925781 306.679688 18.507812 307.890625 18.804688 309.132812 C 19.105469 310.378906 20.007812 311.195312 20.820312 310.953125 L 59.085938 299.640625 C 59.894531 299.402344 60.3125 298.195312 60.015625 296.949219 C 59.714844 295.707031 58.8125 294.886719 58 295.128906 Z M 19.738281 306.441406 "/>
<path style=" stroke:none;fill-rule:nonzero;fill:rgb(100%,100%,100%);fill-opacity:1;" d="M 22.089844 316.238281 C 21.277344 316.480469 20.859375 317.6875 21.160156 318.929688 C 21.457031 320.175781 22.359375 320.992188 23.171875 320.753906 L 61.4375 309.441406 C 62.25 309.199219 62.667969 307.992188 62.367188 306.75 C 62.070312 305.503906 61.164062 304.6875 60.355469 304.925781 Z M 22.089844 316.238281 "/>
<path style=" stroke:none;fill-rule:nonzero;fill:rgb(100%,100%,100%);fill-opacity:1;" d="M 24.441406 326.039062 C 23.628906 326.277344 23.214844 327.484375 23.511719 328.730469 C 23.8125 329.972656 24.714844 330.792969 25.527344 330.550781 L 63.789062 319.238281 C 64.601562 319 65.019531 317.792969 64.71875 316.546875 C 64.421875 315.304688 63.519531 314.484375 62.707031 314.726562 Z M 24.441406 326.039062 "/>
<path style=" stroke:none;fill-rule:nonzero;fill:rgb(100%,100%,100%);fill-opacity:1;" d="M 26.792969 335.835938 C 25.984375 336.078125 25.566406 337.285156 25.863281 338.527344 C 26.164062 339.773438 27.066406 340.589844 27.878906 340.351562 L 66.144531 329.039062 C 66.953125 328.796875 67.371094 327.589844 67.074219 326.34375 C 66.773438 325.101562 65.871094 324.285156 65.058594 324.523438 Z M 26.792969 335.835938 "/>
<path style=" stroke:none;fill-rule:nonzero;fill:rgb(94.901961%,94.901961%,94.901961%);fill-opacity:1;" d="M 151.007812 577.515625 C 151.007812 577.621094 151.351562 577.710938 151.769531 577.710938 L 232.492188 577.710938 C 232.914062 577.710938 233.253906 577.621094 233.253906 577.515625 L 233.253906 561.851562 C 233.253906 561.742188 232.914062 561.65625 232.492188 561.65625 L 151.769531 561.65625 C 151.351562 561.65625 151.007812 561.742188 151.007812 561.851562 Z M 151.007812 577.515625 "/>
<path style=" stroke:none;fill-rule:nonzero;fill:rgb(100%,100%,100%);fill-opacity:1;" d="M 167.179688 574.773438 C 167.179688 574.988281 168.125 575.164062 169.285156 575.164062 C 170.445312 575.164062 171.390625 574.988281 171.390625 574.773438 L 171.390625 564.59375 C 171.390625 564.375 170.445312 564.199219 169.285156 564.199219 C 168.125 564.199219 167.179688 564.375 167.179688 564.59375 Z M 167.179688 574.773438 "/>
<path style=" stroke:none;fill-rule:nonzero;fill:rgb(100%,100%,100%);fill-opacity:1;" d="M 176.320312 574.773438 C 176.320312 574.988281 177.261719 575.164062 178.421875 575.164062 C 179.582031 575.164062 180.527344 574.988281 180.527344 574.773438 L 180.527344 564.59375 C 180.527344 564.375 179.582031 564.199219 178.421875 564.199219 C 177.261719 564.199219 176.320312 564.375 176.320312 564.59375 Z M 176.320312 574.773438 "/>
<path style=" stroke:none;fill-rule:nonzero;fill:rgb(100%,100%,100%);fill-opacity:1;" d="M 185.457031 574.773438 C 185.457031 574.988281 186.402344 575.164062 187.5625 575.164062 C 188.722656 575.164062 189.667969 574.988281 189.667969 574.773438 L 189.667969 564.59375 C 189.667969 564.375 188.722656 564.199219 187.5625 564.199219 C 186.402344 564.199219 185.457031 564.375 185.457031 564.59375 Z M 185.457031 574.773438 "/>
<path style=" stroke:none;fill-rule:nonzero;fill:rgb(100%,100%,100%);fill-opacity:1;" d="M 194.59375 574.773438 C 194.59375 574.988281 195.539062 575.164062 196.699219 575.164062 C 197.859375 575.164062 198.804688 574.988281 198.804688 574.773438 L 198.804688 564.59375 C 198.804688 564.375 197.859375 564.199219 196.699219 564.199219 C 195.539062 564.199219 194.59375 564.375 194.59375 564.59375 Z M 194.59375 574.773438 "/>
<path style=" stroke:none;fill-rule:nonzero;fill:rgb(100%,100%,100%);fill-opacity:1;" d="M 203.734375 574.773438 C 203.734375 574.988281 204.679688 575.164062 205.839844 575.164062 C 207 575.164062 207.941406 574.988281 207.941406 574.773438 L 207.941406 564.59375 C 207.941406 564.375 207 564.199219 205.839844 564.199219 C 204.679688 564.199219 203.734375 564.375 203.734375 564.59375 Z M 203.734375 574.773438 "/>
<path style=" stroke:none;fill-rule:nonzero;fill:rgb(100%,100%,100%);fill-opacity:1;" d="M 212.871094 574.773438 C 212.871094 574.988281 213.816406 575.164062 214.976562 575.164062 C 216.136719 575.164062 217.082031 574.988281 217.082031 574.773438 L 217.082031 564.59375 C 217.082031 564.375 216.136719 564.199219 214.976562 564.199219 C 213.816406 564.199219 212.871094 564.375 212.871094 564.59375 Z M 212.871094 574.773438 "/>
<path style=" stroke:none;fill-rule:nonzero;fill:rgb(90.196078%,90.196078%,90.196078%);fill-opacity:1;" d="M 2.726562 210.089844 C 2.355469 210.308594 2.214844 210.820312 2.410156 211.234375 L 40.429688 290.25 C 40.628906 290.660156 41.089844 290.816406 41.460938 290.597656 L 95.203125 258.757812 C 95.574219 258.539062 95.714844 258.027344 95.515625 257.613281 L 57.496094 178.597656 C 57.300781 178.1875 56.839844 178.03125 56.46875 178.25 Z M 2.726562 210.089844 "/>
<path style=" stroke:none;fill-rule:nonzero;fill:rgb(100%,100%,100%);fill-opacity:1;" d="M 7.71875 212.398438 L 42.511719 284.703125 L 90.207031 256.449219 L 55.417969 184.140625 Z M 4.699219 214.1875 L 4.703125 214.183594 Z M 4.699219 214.1875 "/>
<path style=" stroke:none;fill-rule:nonzero;fill:rgb(42.352941%,38.823529%,100%);fill-opacity:1;" d="M 19.746094 220.347656 C 19.003906 220.785156 18.847656 222.066406 19.394531 223.203125 C 19.941406 224.339844 20.988281 224.90625 21.730469 224.46875 L 56.660156 203.773438 C 57.402344 203.332031 57.558594 202.050781 57.015625 200.917969 C 56.46875 199.78125 55.417969 199.214844 54.679688 199.652344 Z M 19.746094 220.347656 "/>
<path style=" stroke:none;fill-rule:nonzero;fill:rgb(42.352941%,38.823529%,100%);fill-opacity:1;" d="M 24.050781 229.292969 C 23.308594 229.730469 23.152344 231.011719 23.699219 232.148438 C 24.246094 233.285156 25.292969 233.851562 26.03125 233.414062 L 60.964844 212.71875 C 61.707031 212.277344 61.863281 210.996094 61.316406 209.863281 C 60.769531 208.726562 59.722656 208.160156 58.984375 208.597656 Z M 24.050781 229.292969 "/>
<path style=" stroke:none;fill-rule:nonzero;fill:rgb(42.352941%,38.823529%,100%);fill-opacity:1;" d="M 28.355469 238.238281 C 27.613281 238.675781 27.457031 239.957031 28.003906 241.09375 C 28.546875 242.230469 29.597656 242.796875 30.335938 242.359375 L 65.269531 221.664062 C 66.011719 221.222656 66.167969 219.941406 65.621094 218.808594 C 65.074219 217.671875 64.027344 217.105469 63.285156 217.542969 Z M 28.355469 238.238281 "/>
<path style=" stroke:none;fill-rule:nonzero;fill:rgb(42.352941%,38.823529%,100%);fill-opacity:1;" d="M 32.65625 247.183594 C 31.917969 247.621094 31.757812 248.902344 32.304688 250.039062 C 32.851562 251.175781 33.898438 251.742188 34.640625 251.304688 L 69.574219 230.609375 C 70.3125 230.167969 70.472656 228.886719 69.925781 227.753906 C 69.378906 226.617188 68.332031 226.046875 67.589844 226.488281 Z M 32.65625 247.183594 "/>
<path style=" stroke:none;fill-rule:nonzero;fill:rgb(42.352941%,38.823529%,100%);fill-opacity:1;" d="M 36.960938 256.128906 C 36.222656 256.566406 36.0625 257.847656 36.609375 258.984375 C 37.15625 260.121094 38.203125 260.6875 38.945312 260.25 L 73.878906 239.554688 C 74.617188 239.113281 74.777344 237.832031 74.230469 236.699219 C 73.683594 235.5625 72.636719 234.992188 71.894531 235.433594 Z M 36.960938 256.128906 "/>
<path style=" stroke:none;fill-rule:nonzero;fill:rgb(42.352941%,38.823529%,100%);fill-opacity:1;" d="M 41.265625 265.074219 C 40.523438 265.511719 40.367188 266.792969 40.914062 267.929688 C 41.460938 269.066406 42.507812 269.632812 43.25 269.195312 L 78.179688 248.5 C 78.921875 248.058594 79.078125 246.777344 78.535156 245.644531 C 77.988281 244.507812 76.941406 243.9375 76.199219 244.378906 Z M 41.265625 265.074219 "/>
<path style=" stroke:none;fill-rule:nonzero;fill:rgb(90.196078%,90.196078%,90.196078%);fill-opacity:1;" d="M 524.945312 412.015625 C 524.585938 411.777344 524.117188 411.910156 523.902344 412.3125 L 482.835938 489.425781 C 482.621094 489.828125 482.742188 490.347656 483.105469 490.585938 L 535.554688 524.976562 C 535.914062 525.214844 536.382812 525.082031 536.597656 524.679688 L 577.664062 447.566406 C 577.875 447.164062 577.757812 446.644531 577.394531 446.40625 Z M 524.945312 412.015625 "/>
<path style=" stroke:none;fill-rule:nonzero;fill:rgb(100%,100%,100%);fill-opacity:1;" d="M 525.765625 417.949219 L 488.1875 488.519531 L 534.734375 519.042969 L 572.3125 448.472656 Z M 522.816406 416.015625 L 522.824219 416.019531 Z M 522.816406 416.015625 "/>
<path style=" stroke:none;fill-rule:nonzero;fill:rgb(42.352941%,38.823529%,100%);fill-opacity:1;" d="M 525.898438 433.484375 C 525.175781 433.007812 524.105469 433.527344 523.515625 434.632812 C 522.925781 435.742188 523.03125 437.03125 523.757812 437.503906 L 557.847656 459.859375 C 558.570312 460.332031 559.640625 459.816406 560.230469 458.707031 C 560.820312 457.601562 560.710938 456.3125 559.988281 455.839844 Z M 525.898438 433.484375 "/>
<path style=" stroke:none;fill-rule:nonzero;fill:rgb(42.352941%,38.823529%,100%);fill-opacity:1;" d="M 521.25 442.214844 C 520.523438 441.738281 519.457031 442.253906 518.867188 443.363281 C 518.277344 444.472656 518.382812 445.761719 519.105469 446.234375 L 553.199219 468.589844 C 553.921875 469.0625 554.988281 468.546875 555.582031 467.4375 C 556.171875 466.332031 556.0625 465.042969 555.339844 464.566406 Z M 521.25 442.214844 "/>
<path style=" stroke:none;fill-rule:nonzero;fill:rgb(42.352941%,38.823529%,100%);fill-opacity:1;" d="M 516.597656 450.941406 C 515.875 450.46875 514.808594 450.984375 514.21875 452.09375 C 513.625 453.203125 513.734375 454.492188 514.457031 454.964844 L 548.550781 477.320312 C 549.273438 477.792969 550.339844 477.277344 550.929688 476.167969 C 551.523438 475.058594 551.414062 473.773438 550.691406 473.296875 Z M 516.597656 450.941406 "/>
<path style=" stroke:none;fill-rule:nonzero;fill:rgb(42.352941%,38.823529%,100%);fill-opacity:1;" d="M 511.949219 459.671875 C 511.226562 459.199219 510.160156 459.714844 509.566406 460.824219 C 508.976562 461.933594 509.085938 463.21875 509.808594 463.695312 L 543.898438 486.050781 C 544.625 486.523438 545.691406 486.007812 546.28125 484.898438 C 546.871094 483.789062 546.765625 482.503906 546.042969 482.027344 Z M 511.949219 459.671875 "/>
<path style=" stroke:none;fill-rule:nonzero;fill:rgb(42.352941%,38.823529%,100%);fill-opacity:1;" d="M 507.300781 468.402344 C 506.578125 467.929688 505.507812 468.445312 504.917969 469.554688 C 504.328125 470.664062 504.4375 471.949219 505.160156 472.425781 L 539.25 494.78125 C 539.972656 495.253906 541.042969 494.738281 541.632812 493.628906 C 542.222656 492.519531 542.117188 491.230469 541.394531 490.757812 Z M 507.300781 468.402344 "/>
<path style=" stroke:none;fill-rule:nonzero;fill:rgb(42.352941%,38.823529%,100%);fill-opacity:1;" d="M 502.652344 477.132812 C 501.929688 476.660156 500.859375 477.175781 500.269531 478.285156 C 499.679688 479.390625 499.785156 480.679688 500.511719 481.15625 L 534.601562 503.507812 C 535.324219 503.984375 536.394531 503.46875 536.984375 502.359375 C 537.574219 501.25 537.464844 499.960938 536.742188 499.488281 Z M 502.652344 477.132812 "/>
<path style=" stroke:none;fill-rule:nonzero;fill:rgb(100%,72.156863%,72.156863%);fill-opacity:1;" d="M 335.539062 271.675781 L 334.746094 277.117188 L 326.402344 334.210938 L 321.160156 352.773438 L 319.320312 359.304688 L 317.773438 364.800781 L 298.984375 431.386719 L 293.832031 444.824219 C 288.03125 447.207031 284.238281 453.410156 284.386719 460.269531 C 284.539062 467.125 288.597656 473.121094 294.496094 475.1875 C 300.390625 477.25 306.816406 474.929688 310.488281 469.414062 C 314.160156 463.894531 314.261719 456.394531 310.746094 450.75 L 347.519531 355.832031 L 348.882812 352.589844 L 353.054688 342.660156 L 360.9375 276.671875 L 361.429688 272.523438 Z M 335.539062 271.675781 "/>
<path style=" stroke:none;fill-rule:nonzero;fill:rgb(42.352941%,38.823529%,100%);fill-opacity:1;" d="M 366 278.4375 C 354.03125 273.664062 342.550781 273.15625 331.730469 278.4375 L 335.261719 244.472656 C 334.992188 235.648438 341.140625 228.207031 349.085938 227.746094 C 357.136719 227.273438 364.007812 234.136719 364.433594 243.070312 L 364.433594 243.125 Z M 366 278.4375 "/>
</g>
</svg>
