<?xml version="1.0" encoding="UTF-8"?>
<svg xmlns="http://www.w3.org/2000/svg" xmlns:xlink="http://www.w3.org/1999/xlink" width="578px" height="578px" viewBox="0 0 578 578" version="1.1">
<defs>
<filter id="alpha" filterUnits="objectBoundingBox" x="0%" y="0%" width="100%" height="100%">
  <feColorMatrix type="matrix" in="SourceGraphic" values="0 0 0 0 1 0 0 0 0 1 0 0 0 0 1 0 0 0 1 0"/>
</filter>
<mask id="mask0">
  <g filter="url(#alpha)">
<rect x="0" y="0" width="578" height="578" style="fill:rgb(0%,0%,0%);fill-opacity:0.2;stroke:none;"/>
  </g>
</mask>
<clipPath id="clip1">
  <rect x="0" y="0" width="578" height="578"/>
</clipPath>
<g id="surface5" clip-path="url(#clip1)">
<path style=" stroke:none;fill-rule:nonzero;fill:rgb(0%,0%,0%);fill-opacity:1;" d="M 273.1875 196.648438 C 272.066406 196.589844 271.015625 195.972656 270.289062 194.945312 C 269.566406 193.921875 269.234375 192.578125 269.375 191.25 L 269.664062 188.535156 C 269.773438 187.480469 269.445312 186.425781 268.78125 185.71875 L 267.074219 183.894531 C 265.933594 182.679688 265.472656 180.796875 265.878906 179.039062 C 266.289062 177.28125 267.5 175.953125 269 175.613281 L 271.25 175.101562 C 272.125 174.902344 272.859375 174.203125 273.21875 173.230469 L 274.144531 170.726562 C 274.761719 169.058594 276.117188 167.949219 277.640625 167.871094 C 279.167969 167.792969 280.601562 168.753906 281.335938 170.355469 L 282.4375 172.75 C 282.863281 173.683594 283.648438 174.308594 284.539062 174.414062 L 286.8125 174.6875 C 288.335938 174.871094 289.636719 176.070312 290.167969 177.78125 C 290.703125 179.492188 290.378906 181.414062 289.332031 182.742188 L 287.765625 184.734375 C 287.15625 185.507812 286.902344 186.59375 287.089844 187.632812 L 287.574219 190.304688 C 287.898438 192.089844 287.34375 193.9375 286.148438 195.070312 C 284.953125 196.207031 283.324219 196.433594 281.941406 195.65625 L 279.871094 194.492188 C 279.066406 194.035156 278.121094 194.082031 277.351562 194.621094 L 275.375 195.996094 C 274.710938 196.457031 273.953125 196.683594 273.1875 196.648438 Z M 273.1875 196.648438 "/>
</g>
<mask id="mask1">
  <g filter="url(#alpha)">
<rect x="0" y="0" width="578" height="578" style="fill:rgb(0%,0%,0%);fill-opacity:0.2;stroke:none;"/>
  </g>
</mask>
<clipPath id="clip2">
  <rect x="0" y="0" width="578" height="578"/>
</clipPath>
<g id="surface8" clip-path="url(#clip2)">
<path style=" stroke:none;fill-rule:nonzero;fill:rgb(0%,0%,0%);fill-opacity:1;" d="M 304.621094 195.628906 C 303.496094 195.570312 302.449219 194.953125 301.722656 193.925781 C 301 192.902344 300.667969 191.5625 300.808594 190.230469 L 301.09375 187.519531 C 301.207031 186.460938 300.878906 185.40625 300.214844 184.699219 L 298.507812 182.878906 C 297.367188 181.664062 296.90625 179.777344 297.3125 178.019531 C 297.722656 176.261719 298.929688 174.933594 300.433594 174.59375 L 302.679688 174.082031 C 303.554688 173.886719 304.292969 173.183594 304.652344 172.210938 L 305.578125 169.707031 C 306.191406 168.039062 307.550781 166.933594 309.074219 166.851562 C 310.601562 166.773438 312.03125 167.738281 312.769531 169.335938 L 313.867188 171.734375 C 314.296875 172.667969 315.082031 173.289062 315.96875 173.394531 L 318.246094 173.671875 C 319.765625 173.855469 321.066406 175.054688 321.601562 176.761719 C 322.136719 178.472656 321.8125 180.394531 320.765625 181.726562 L 319.199219 183.714844 C 318.585938 184.488281 318.335938 185.574219 318.523438 186.613281 L 319.007812 189.289062 C 319.332031 191.070312 318.777344 192.917969 317.582031 194.054688 C 316.386719 195.1875 314.753906 195.414062 313.375 194.636719 L 311.304688 193.472656 C 310.496094 193.015625 309.554688 193.066406 308.785156 193.601562 L 306.808594 194.976562 C 306.144531 195.441406 305.386719 195.667969 304.621094 195.628906 Z M 304.621094 195.628906 "/>
</g>
</defs>
<g id="surface1">
<path style=" stroke:none;fill-rule:nonzero;fill:rgb(79.215686%,79.215686%,79.215686%);fill-opacity:1;" d="M 509.121094 35.09375 L 0.796875 35.09375 C 0.355469 35.082031 0 34.652344 0 34.121094 C 0 33.589844 0.355469 33.15625 0.796875 33.144531 L 509.121094 33.144531 C 509.5625 33.15625 509.917969 33.589844 509.917969 34.121094 C 509.917969 34.652344 509.5625 35.082031 509.121094 35.09375 Z M 509.121094 35.09375 "/>
<path style=" stroke:none;fill-rule:nonzero;fill:rgb(24.705882%,23.921569%,33.72549%);fill-opacity:1;" d="M 27.550781 10.722656 C 27.550781 4.800781 23.621094 0 18.769531 0 C 13.917969 0 9.988281 4.800781 9.988281 10.722656 C 9.988281 16.644531 13.917969 21.445312 18.769531 21.445312 C 23.621094 21.445312 27.550781 16.644531 27.550781 10.722656 Z M 27.550781 10.722656 "/>
<path style=" stroke:none;fill-rule:nonzero;fill:rgb(24.705882%,23.921569%,33.72549%);fill-opacity:1;" d="M 57.894531 10.722656 C 57.894531 4.800781 53.960938 0 49.109375 0 C 44.257812 0 40.328125 4.800781 40.328125 10.722656 C 40.328125 16.644531 44.257812 21.445312 49.109375 21.445312 C 53.960938 21.445312 57.894531 16.644531 57.894531 10.722656 Z M 57.894531 10.722656 "/>
<path style=" stroke:none;fill-rule:nonzero;fill:rgb(24.705882%,23.921569%,33.72549%);fill-opacity:1;" d="M 88.234375 10.722656 C 88.234375 4.800781 84.300781 0 79.449219 0 C 74.601562 0 70.667969 4.800781 70.667969 10.722656 C 70.667969 16.644531 74.601562 21.445312 79.449219 21.445312 C 84.300781 21.445312 88.234375 16.644531 88.234375 10.722656 Z M 88.234375 10.722656 "/>
<path style=" stroke:none;fill-rule:nonzero;fill:rgb(24.705882%,23.921569%,33.72549%);fill-opacity:1;" d="M 490.9375 2.65625 L 469.386719 2.65625 C 468.496094 2.679688 467.785156 3.546875 467.785156 4.605469 C 467.785156 5.667969 468.496094 6.535156 469.386719 6.554688 L 490.9375 6.554688 C 491.828125 6.535156 492.539062 5.667969 492.539062 4.605469 C 492.539062 3.546875 491.828125 2.679688 490.9375 2.65625 Z M 490.9375 2.65625 "/>
<path style=" stroke:none;fill-rule:nonzero;fill:rgb(24.705882%,23.921569%,33.72549%);fill-opacity:1;" d="M 490.9375 9.972656 L 469.386719 9.972656 C 468.496094 9.996094 467.785156 10.863281 467.785156 11.921875 C 467.785156 12.984375 468.496094 13.851562 469.386719 13.871094 L 490.9375 13.871094 C 491.828125 13.851562 492.539062 12.984375 492.539062 11.921875 C 492.539062 10.863281 491.828125 9.996094 490.9375 9.972656 Z M 490.9375 9.972656 "/>
<path style=" stroke:none;fill-rule:nonzero;fill:rgb(24.705882%,23.921569%,33.72549%);fill-opacity:1;" d="M 490.9375 17.28125 L 469.386719 17.28125 C 468.496094 17.300781 467.785156 18.167969 467.785156 19.230469 C 467.785156 20.292969 468.496094 21.15625 469.386719 21.179688 L 490.9375 21.179688 C 491.828125 21.15625 492.539062 20.292969 492.539062 19.230469 C 492.539062 18.167969 491.828125 17.300781 490.9375 17.28125 Z M 490.9375 17.28125 "/>
<path style=" stroke:none;fill-rule:nonzero;fill:rgb(94.117647%,94.117647%,94.117647%);fill-opacity:1;" d="M 482.890625 68.011719 L 19.894531 68.011719 C 14.558594 68.019531 10.230469 73.1875 10.222656 79.5625 L 10.222656 81.425781 C 10.230469 87.800781 14.558594 92.964844 19.894531 92.976562 L 482.890625 92.976562 C 488.226562 92.964844 492.550781 87.800781 492.558594 81.425781 L 492.558594 79.5625 C 492.550781 73.1875 488.226562 68.019531 482.890625 68.011719 Z M 482.890625 68.011719 "/>
<path style=" stroke:none;fill-rule:nonzero;fill:rgb(100%,100%,100%);fill-opacity:1;" d="M 75.769531 85.101562 L 31.699219 85.101562 C 29.644531 85.097656 27.980469 83.109375 27.980469 80.65625 C 27.980469 78.207031 29.644531 76.214844 31.699219 76.210938 L 75.769531 76.210938 C 80.570312 76.132812 80.617188 85.183594 75.769531 85.101562 Z M 75.769531 85.101562 "/>
<path style=" stroke:none;fill-rule:nonzero;fill:rgb(100%,100%,100%);fill-opacity:1;" d="M 207.609375 85.101562 L 163.535156 85.101562 C 161.484375 85.097656 159.820312 83.109375 159.820312 80.65625 C 159.820312 78.207031 161.484375 76.214844 163.535156 76.210938 L 207.609375 76.210938 C 212.40625 76.132812 212.457031 85.183594 207.609375 85.101562 Z M 207.609375 85.101562 "/>
<path style=" stroke:none;fill-rule:nonzero;fill:rgb(100%,100%,100%);fill-opacity:1;" d="M 339.445312 85.101562 L 295.375 85.101562 C 293.320312 85.097656 291.660156 83.109375 291.660156 80.65625 C 291.660156 78.207031 293.320312 76.214844 295.375 76.210938 L 339.445312 76.210938 C 344.246094 76.132812 344.292969 85.183594 339.445312 85.101562 Z M 339.445312 85.101562 "/>
<path style=" stroke:none;fill-rule:nonzero;fill:rgb(42.352941%,38.823529%,100%);fill-opacity:1;" d="M 464.453125 85.582031 L 420.378906 85.582031 C 418.324219 85.582031 416.660156 83.59375 416.660156 81.136719 C 416.660156 78.683594 418.324219 76.691406 420.378906 76.691406 L 464.453125 76.691406 C 469.253906 76.613281 469.300781 85.664062 464.453125 85.582031 Z M 464.453125 85.582031 "/>
<path style=" stroke:none;fill-rule:nonzero;fill:rgb(100%,100%,100%);fill-opacity:1;" d="M 394.082031 68.011719 L 395.691406 68.011719 L 395.691406 92.976562 L 394.082031 92.976562 Z M 394.082031 68.011719 "/>
<path style=" stroke:none;fill-rule:nonzero;fill:rgb(94.117647%,94.117647%,94.117647%);fill-opacity:1;" d="M 229.320312 437.484375 L 40.363281 437.484375 C 36.859375 437.476562 34.015625 434.085938 34.011719 429.898438 L 34.011719 396.84375 C 34.015625 392.660156 36.859375 389.265625 40.363281 389.261719 L 229.320312 389.261719 C 232.828125 389.265625 235.667969 392.660156 235.671875 396.84375 L 235.671875 429.898438 C 235.667969 434.085938 232.828125 437.476562 229.320312 437.484375 Z M 229.320312 437.484375 "/>
<path style=" stroke:none;fill-rule:nonzero;fill:rgb(100%,100%,100%);fill-opacity:1;" d="M 210.960938 432.367188 L 44.648438 432.367188 C 41.140625 432.363281 38.300781 428.96875 38.296875 424.78125 L 38.296875 401.964844 C 38.300781 397.777344 41.140625 394.386719 44.648438 394.378906 L 225.039062 394.378906 C 228.542969 394.386719 231.382812 397.777344 231.386719 401.964844 L 231.386719 407.96875 C 231.375 421.4375 222.238281 432.351562 210.960938 432.367188 Z M 210.960938 432.367188 "/>
<path style=" stroke:none;fill-rule:nonzero;fill:rgb(90.196078%,90.196078%,90.196078%);fill-opacity:1;" d="M 153.59375 411.019531 L 77.648438 411.019531 C 76.742188 411.019531 76.007812 410.144531 76.007812 409.0625 C 76.007812 407.984375 76.742188 407.109375 77.648438 407.109375 L 153.59375 407.109375 C 154.496094 407.109375 155.230469 407.984375 155.230469 409.0625 C 155.230469 410.144531 154.496094 411.019531 153.59375 411.019531 Z M 153.59375 411.019531 "/>
<path style=" stroke:none;fill-rule:nonzero;fill:rgb(90.196078%,90.196078%,90.196078%);fill-opacity:1;" d="M 192.039062 419.019531 L 77.648438 419.019531 C 77.0625 419.023438 76.519531 418.648438 76.226562 418.042969 C 75.933594 417.4375 75.933594 416.691406 76.226562 416.085938 C 76.519531 415.480469 77.0625 415.105469 77.648438 415.109375 L 192.039062 415.109375 C 192.941406 415.109375 193.671875 415.984375 193.671875 417.066406 C 193.671875 418.144531 192.941406 419.019531 192.039062 419.019531 Z M 192.039062 419.019531 "/>
<path style=" stroke:none;fill-rule:nonzero;fill:rgb(100%,100%,100%);fill-opacity:1;" d="M 241.390625 351.441406 L 25.941406 351.441406 C 22.359375 351.4375 19.460938 347.972656 19.457031 343.699219 L 19.457031 147 C 19.460938 142.722656 22.359375 139.257812 25.941406 139.253906 L 241.390625 139.253906 C 244.972656 139.257812 247.871094 142.722656 247.875 147 L 247.875 343.699219 C 247.871094 347.972656 244.972656 351.4375 241.390625 351.441406 Z M 241.390625 351.441406 "/>
<path style=" stroke:none;fill-rule:nonzero;fill:rgb(94.117647%,94.117647%,94.117647%);fill-opacity:1;" d="M 241.390625 352.402344 L 25.941406 352.402344 C 21.917969 352.398438 18.65625 348.503906 18.652344 343.699219 L 18.652344 147 C 18.65625 142.191406 21.917969 138.300781 25.941406 138.292969 L 241.390625 138.292969 C 245.414062 138.300781 248.675781 142.191406 248.679688 147 L 248.679688 343.699219 C 248.675781 348.503906 245.414062 352.398438 241.390625 352.402344 Z M 25.941406 140.214844 C 22.804688 140.21875 20.261719 143.253906 20.257812 147 L 20.257812 343.699219 C 20.261719 347.445312 22.804688 350.480469 25.941406 350.484375 L 241.390625 350.484375 C 244.527344 350.480469 247.070312 347.445312 247.074219 343.699219 L 247.074219 147 C 247.070312 143.253906 244.527344 140.21875 241.390625 140.214844 Z M 25.941406 140.214844 "/>
<path style=" stroke:none;fill-rule:nonzero;fill:rgb(94.117647%,94.117647%,94.117647%);fill-opacity:1;" d="M 19.953125 314 L 19.953125 343.699219 C 19.957031 347.644531 22.636719 350.84375 25.941406 350.847656 L 241.390625 350.847656 C 244.695312 350.84375 247.375 347.644531 247.378906 343.699219 L 247.378906 314 Z M 19.953125 314 "/>
<path style=" stroke:none;fill-rule:nonzero;fill:rgb(94.117647%,94.117647%,94.117647%);fill-opacity:1;" d="M 21.117188 142.125 L 21.984375 140.507812 L 247.8125 313.1875 L 246.945312 314.804688 Z M 21.117188 142.125 "/>
<path style=" stroke:none;fill-rule:nonzero;fill:rgb(94.117647%,94.117647%,94.117647%);fill-opacity:1;" d="M 21.753906 313.191406 L 247.582031 140.507812 L 248.449219 142.125 L 22.621094 314.804688 Z M 21.753906 313.191406 "/>
<path style=" stroke:none;fill-rule:nonzero;fill:rgb(62.745098%,38.039216%,41.568627%);fill-opacity:1;" d="M 438.414062 564.355469 L 428.453125 564.355469 L 423.714844 518.46875 L 438.417969 518.472656 Z M 438.414062 564.355469 "/>
<path style=" stroke:none;fill-rule:nonzero;fill:rgb(18.431373%,18.039216%,25.490196%);fill-opacity:1;" d="M 438.148438 560.46875 L 427.523438 555.3125 L 427.207031 555.15625 L 421.339844 560.46875 C 414.648438 560.464844 409.144531 566.761719 408.855469 574.742188 C 408.839844 574.957031 408.839844 575.175781 408.839844 575.398438 L 408.839844 575.886719 L 440.953125 575.886719 L 440.953125 560.46875 Z M 438.148438 560.46875 "/>
<path style=" stroke:none;fill-rule:nonzero;fill:rgb(62.745098%,38.039216%,41.568627%);fill-opacity:1;" d="M 415.089844 553.285156 L 405.691406 557.230469 L 388.472656 515.828125 L 402.339844 510 Z M 415.089844 553.285156 "/>
<path style=" stroke:none;fill-rule:nonzero;fill:rgb(18.431373%,18.039216%,25.490196%);fill-opacity:1;" d="M 413.757812 549.722656 L 402.300781 549.070312 L 401.960938 549.050781 L 397.902344 556.386719 C 391.589844 559.035156 388.148438 567.15625 390.09375 574.800781 C 390.136719 575.007812 390.199219 575.214844 390.257812 575.425781 L 390.394531 575.886719 L 420.691406 563.15625 L 416.40625 548.609375 Z M 413.757812 549.722656 "/>
<path style=" stroke:none;fill-rule:nonzero;fill:rgb(18.431373%,18.039216%,25.490196%);fill-opacity:1;" d="M 441.933594 366.511719 C 451.046875 366.089844 439.757812 452.816406 439.757812 452.816406 C 439.757812 452.816406 443.0625 528.960938 442.359375 532.957031 C 441.660156 536.953125 442.273438 547.730469 442.273438 547.730469 C 440.488281 543.847656 422.070312 546.777344 422.070312 546.777344 L 419.5625 469.605469 L 406.769531 407.773438 L 389.035156 449.222656 L 406.035156 512.839844 C 406.035156 512.839844 412.917969 520.449219 412.1875 523.453125 C 411.453125 526.460938 393.421875 533.242188 390.109375 533.394531 C 386.796875 533.546875 388.292969 528.523438 388.128906 523.578125 C 387.96875 518.632812 372.378906 472.78125 366.894531 457.183594 C 361.410156 441.582031 365.671875 419.585938 368.472656 403.601562 C 371.273438 387.621094 386 357.625 386 357.625 C 404.28125 332.996094 432.824219 366.933594 441.933594 366.511719 Z M 441.933594 366.511719 "/>
<path style=" stroke:none;fill-rule:nonzero;fill:rgb(62.745098%,38.039216%,41.568627%);fill-opacity:1;" d="M 330.886719 296.421875 C 331.898438 298.730469 333.710938 300.382812 335.839844 300.9375 C 337.96875 301.492188 340.195312 300.890625 341.917969 299.300781 L 363.828125 316.375 L 363.761719 300.136719 L 342.964844 286.410156 C 340.476562 283.058594 336.28125 282.457031 333.203125 285.011719 C 330.121094 287.566406 329.125 292.46875 330.886719 296.421875 Z M 330.886719 296.421875 "/>
<path style=" stroke:none;fill-rule:nonzero;fill:rgb(24.705882%,23.921569%,33.72549%);fill-opacity:1;" d="M 437.203125 380.414062 C 414.605469 380.414062 402.152344 375.011719 395.539062 370.1875 C 387.453125 364.289062 386.070312 358.070312 386.015625 357.808594 L 386 357.734375 L 386.785156 345.902344 L 387.128906 344.984375 C 388.714844 340.742188 388.925781 335.949219 387.71875 331.535156 L 387.695312 331.441406 L 387.703125 331.347656 L 392.984375 249.503906 L 411.683594 242.1875 L 417.125 235.660156 L 441.34375 235.238281 L 444.71875 243.410156 L 463.808594 251.996094 L 454.429688 318.683594 L 449.933594 327.941406 L 451.742188 338.023438 L 451.730469 338.117188 L 445.832031 380.167969 L 445.507812 380.1875 C 442.597656 380.339844 439.828125 380.417969 437.203125 380.414062 Z M 437.203125 380.414062 "/>
<path style=" stroke:none;fill-rule:nonzero;fill:rgb(24.705882%,23.921569%,33.72549%);fill-opacity:1;" d="M 378.742188 329.351562 L 369.875 323.074219 L 369.320312 322.117188 C 367.03125 318.183594 363.316406 315.78125 359.308594 315.636719 L 359.207031 315.636719 L 346.996094 307.0625 L 352.058594 289.351562 L 371.199219 296.105469 L 384.542969 256.507812 C 386.035156 252.070312 389.492188 249.019531 393.480469 248.609375 C 397.46875 248.203125 401.3125 250.511719 403.414062 254.578125 C 404.46875 256.664062 405.019531 259.0625 404.996094 261.496094 L 404.996094 287.410156 L 404.914062 287.539062 Z M 378.742188 329.351562 "/>
<path style=" stroke:none;fill-rule:nonzero;fill:rgb(62.745098%,38.039216%,41.568627%);fill-opacity:1;" d="M 438.011719 365.183594 C 438.394531 362.621094 439.707031 360.394531 441.597656 359.101562 C 443.488281 357.808594 445.761719 357.582031 447.808594 358.484375 L 464.410156 334.335938 L 468.433594 349.847656 L 452.046875 370.402344 C 450.519531 374.492188 446.671875 376.570312 443.089844 375.238281 C 439.507812 373.910156 437.324219 369.589844 438.011719 365.183594 Z M 438.011719 365.183594 "/>
<path style=" stroke:none;fill-rule:nonzero;fill:rgb(24.705882%,23.921569%,33.72549%);fill-opacity:1;" d="M 462.835938 362.132812 L 451.8125 348.960938 L 458.832031 328.535156 L 469.003906 311.945312 C 458.164062 305.644531 450.027344 290.710938 444.128906 278.351562 L 444.0625 278.214844 L 445.53125 264.480469 C 445.875 261.269531 446.953125 258.230469 448.644531 255.703125 C 451.632812 251.238281 456.246094 248.78125 461.023438 249.105469 C 465.800781 249.433594 470.148438 252.503906 472.691406 257.34375 L 492.457031 309.832031 L 492.234375 310.226562 L 476.335938 342.601562 L 471.996094 345.964844 Z M 462.835938 362.132812 "/>
<path style=" stroke:none;fill-rule:nonzero;fill:rgb(62.745098%,38.039216%,41.568627%);fill-opacity:1;" d="M 446.621094 207.707031 C 445.109375 220.886719 434.941406 230.109375 423.90625 228.316406 C 412.871094 226.519531 405.136719 214.390625 406.628906 201.207031 L 406.667969 200.863281 C 408.40625 187.867188 418.550781 178.941406 429.460938 180.8125 C 440.367188 182.679688 448.003906 194.652344 446.617188 207.707031 Z M 446.621094 207.707031 "/>
<path style=" stroke:none;fill-rule:nonzero;fill:rgb(18.431373%,18.039216%,25.490196%);fill-opacity:1;" d="M 441.484375 220.125 C 442.523438 217.609375 443.585938 214.910156 443.296875 212.128906 C 443.003906 209.347656 440.71875 206.691406 438.476562 207.515625 C 437.136719 208.011719 436.125 209.589844 434.722656 209.671875 C 432.792969 209.785156 431.6875 207.148438 431.089844 204.957031 L 428.644531 196.03125 C 423.890625 200.453125 417.734375 202.117188 411.847656 200.5625 C 409.578125 199.941406 407.285156 198.734375 405.957031 196.453125 C 404.625 194.171875 404.632812 190.632812 406.457031 188.90625 C 407.351562 188.0625 408.546875 187.742188 409.402344 186.839844 C 410.492188 185.6875 410.820312 183.820312 410.214844 182.242188 C 409.609375 180.664062 408.207031 179.746094 406.769531 179.984375 L 412.921875 179.066406 L 411.089844 175.105469 C 412.5 176.25 414.246094 176.632812 415.90625 176.160156 C 417.5625 175.804688 419.121094 174.988281 420.742188 174.445312 C 428.8125 171.984375 437.265625 176.226562 441.445312 184.828125 C 444.546875 183.59375 447.964844 184.769531 450.035156 187.792969 C 451.683594 190.289062 452.132812 193.625 452.195312 196.800781 C 452.316406 203.070312 451.171875 209.28125 448.859375 214.910156 C 448.195312 216.699219 447.246094 218.3125 446.058594 219.660156 C 444.847656 221.011719 443.199219 221.65625 441.554688 221.417969 "/>
<path style=" stroke:none;fill-rule:nonzero;fill:rgb(42.352941%,38.823529%,100%);fill-opacity:1;" d="M 114.453125 195.324219 C 114.78125 200.9375 116.167969 206.390625 118.503906 211.277344 C 123.429688 221.609375 131.878906 229.089844 140.976562 233.535156 C 152.339844 239.089844 165.011719 239.261719 177.074219 238.023438 C 188.277344 236.871094 199.367188 234.207031 210.613281 233.65625 C 219.308594 233.324219 228.011719 233.570312 236.6875 234.398438 C 253.511719 235.824219 270.269531 238.472656 286.917969 241.679688 C 291.429688 242.539062 295.925781 243.460938 300.417969 244.445312 C 300.839844 244.492188 301.261719 244.585938 301.671875 244.726562 C 301.753906 244.765625 301.882812 244.734375 301.957031 244.789062 C 302.09375 244.890625 301.410156 244.53125 301.824219 244.941406 C 302.402344 245.664062 302.917969 246.457031 303.363281 247.304688 L 309.511719 256.753906 C 311.273438 259.464844 312.910156 262.757812 315.1875 264.894531 C 318.476562 267.925781 322.964844 268.300781 326.570312 265.839844 C 328.414062 264.449219 329.882812 262.457031 330.804688 260.097656 C 332.21875 257 333.90625 254.089844 335.835938 251.421875 C 343.152344 241.230469 353.320312 234.960938 361.824219 226.382812 C 365.941406 222.398438 369.457031 217.601562 372.214844 212.195312 C 374.570312 207.304688 376.03125 201.875 376.511719 196.261719 C 377.527344 184.863281 374.601562 173.238281 369.675781 163.542969 C 364.316406 153.125 356.621094 144.710938 347.460938 139.257812 C 337.167969 132.996094 325.78125 129.945312 314.367188 128.425781 C 302.246094 126.8125 289.984375 126.816406 277.804688 126.980469 C 264.136719 127.160156 250.492188 127.878906 236.875 129.132812 C 223.238281 130.394531 209.65625 132.1875 196.125 134.507812 C 183.144531 136.738281 170 139.0625 157.292969 143.007812 C 146.066406 146.492188 134.871094 151.9375 126.488281 161.808594 C 119.035156 170.582031 113.851562 182.589844 114.453125 195.324219 Z M 114.453125 195.324219 "/>
<path style=" stroke:none;fill-rule:nonzero;fill:rgb(100%,100%,100%);fill-opacity:1;" d="M 177.207031 198.949219 C 176.082031 198.886719 175.035156 198.269531 174.308594 197.246094 C 173.585938 196.21875 173.253906 194.878906 173.394531 193.546875 L 173.679688 190.835938 C 173.792969 189.78125 173.464844 188.726562 172.796875 188.015625 L 171.09375 186.195312 C 169.953125 184.980469 169.492188 183.097656 169.898438 181.339844 C 170.308594 179.582031 171.515625 178.253906 173.019531 177.910156 L 175.265625 177.402344 C 176.140625 177.203125 176.878906 176.503906 177.238281 175.53125 L 178.160156 173.027344 C 178.777344 171.355469 180.136719 170.25 181.660156 170.171875 C 183.1875 170.09375 184.617188 171.054688 185.355469 172.65625 L 186.453125 175.050781 C 186.882812 175.984375 187.667969 176.605469 188.554688 176.714844 L 190.832031 176.988281 C 192.351562 177.171875 193.652344 178.371094 194.1875 180.082031 C 194.722656 181.789062 194.398438 183.714844 193.351562 185.042969 L 191.785156 187.035156 C 191.171875 187.808594 190.921875 188.894531 191.109375 189.933594 L 191.59375 192.605469 C 191.917969 194.390625 191.363281 196.238281 190.167969 197.371094 C 188.972656 198.507812 187.339844 198.734375 185.960938 197.957031 L 183.890625 196.789062 C 183.082031 196.335938 182.140625 196.382812 181.371094 196.917969 L 179.394531 198.296875 C 178.730469 198.757812 177.972656 198.984375 177.207031 198.949219 Z M 177.207031 198.949219 "/>
<path style=" stroke:none;fill-rule:nonzero;fill:rgb(100%,100%,100%);fill-opacity:1;" d="M 209.4375 197.832031 C 208.417969 197.773438 207.449219 197.257812 206.734375 196.390625 C 205.855469 195.277344 205.453125 193.75 205.644531 192.238281 L 205.910156 189.75 C 206.023438 188.675781 205.6875 187.601562 205.011719 186.878906 L 203.429688 185.1875 C 202.484375 184.226562 201.953125 182.804688 201.984375 181.320312 C 202.054688 179.085938 203.410156 177.207031 205.25 176.792969 L 207.472656 176.289062 C 208.367188 176.085938 209.117188 175.375 209.484375 174.378906 L 210.3125 172.132812 C 210.914062 170.394531 212.28125 169.207031 213.851562 169.054688 C 215.394531 168.953125 216.847656 169.917969 217.585938 171.535156 L 218.675781 173.90625 C 219.109375 174.855469 219.914062 175.492188 220.816406 175.601562 L 222.925781 175.855469 C 224.167969 175.96875 225.296875 176.746094 226 177.96875 C 227.042969 179.828125 226.871094 182.300781 225.585938 183.925781 L 224.035156 185.894531 C 223.414062 186.683594 223.15625 187.785156 223.347656 188.84375 L 223.792969 191.3125 C 224.085938 192.757812 223.816406 194.277344 223.066406 195.460938 C 221.914062 197.226562 219.886719 197.800781 218.191406 196.835938 L 216.144531 195.683594 C 215.324219 195.222656 214.363281 195.273438 213.582031 195.816406 L 211.625 197.175781 C 210.964844 197.640625 210.203125 197.867188 209.4375 197.832031 Z M 209.4375 197.832031 "/>
<path style=" stroke:none;fill-rule:nonzero;fill:rgb(100%,100%,100%);fill-opacity:1;" d="M 241.753906 197.667969 C 240.632812 197.605469 239.582031 196.988281 238.859375 195.964844 C 238.132812 194.9375 237.800781 193.597656 237.941406 192.265625 L 238.230469 189.554688 C 238.339844 188.5 238.011719 187.445312 237.347656 186.734375 L 235.640625 184.914062 C 234.5 183.699219 234.039062 181.816406 234.449219 180.058594 C 234.855469 178.300781 236.066406 176.972656 237.566406 176.628906 L 239.816406 176.121094 C 240.691406 175.921875 241.429688 175.222656 241.789062 174.25 L 242.710938 171.746094 C 243.328125 170.074219 244.683594 168.96875 246.210938 168.890625 C 247.734375 168.8125 249.167969 169.773438 249.902344 171.375 L 251.003906 173.769531 C 251.429688 174.703125 252.21875 175.324219 253.105469 175.433594 L 255.382812 175.707031 C 256.902344 175.890625 258.203125 177.089844 258.738281 178.800781 C 259.273438 180.507812 258.949219 182.433594 257.898438 183.761719 L 256.332031 185.753906 C 255.722656 186.527344 255.46875 187.613281 255.660156 188.652344 L 256.140625 191.324219 C 256.464844 193.109375 255.914062 194.957031 254.71875 196.089844 C 253.519531 197.226562 251.890625 197.453125 250.507812 196.675781 L 248.4375 195.507812 C 247.632812 195.054688 246.691406 195.101562 245.917969 195.636719 L 243.941406 197.015625 C 243.28125 197.476562 242.519531 197.703125 241.753906 197.667969 Z M 241.753906 197.667969 "/>
<use xlink:href="#surface5" mask="url(#mask0)"/>
<use xlink:href="#surface8" mask="url(#mask1)"/>
<path style=" stroke:none;fill-rule:nonzero;fill:rgb(94.901961%,94.901961%,94.901961%);fill-opacity:1;" d="M 504.878906 515.945312 L 505.796875 491.253906 C 515.382812 485.132812 526.078125 481.898438 536.945312 481.835938 C 521.984375 496.441406 523.855469 524.601562 513.714844 544.242188 C 507.226562 556.59375 496.386719 564.753906 484.257812 566.414062 L 471.742188 575.566406 C 468.265625 552.417969 473.449219 528.617188 485.925781 510.425781 C 489.429688 505.425781 493.441406 500.96875 497.875 497.167969 C 500.875 506.609375 504.878906 515.945312 504.878906 515.945312 Z M 504.878906 515.945312 "/>
<path style=" stroke:none;fill-rule:nonzero;fill:rgb(79.215686%,79.215686%,79.215686%);fill-opacity:1;" d="M 576.648438 577.730469 L 241.117188 577.730469 C 240.589844 577.730469 240.160156 577.21875 240.160156 576.585938 C 240.160156 575.953125 240.589844 575.441406 241.117188 575.441406 L 576.648438 575.441406 C 577.175781 575.441406 577.605469 575.953125 577.605469 576.585938 C 577.605469 577.21875 577.175781 577.730469 576.648438 577.730469 Z M 576.648438 577.730469 "/>
</g>
</svg>
